<?xml version="1.0" encoding="utf-8"?>
<svg version="1.1" xmlns:xlink="http://www.w3.org/1999/xlink" width="51px" height="51px" xmlns="http://www.w3.org/2000/svg">
  <defs>
    <filter x="-3px" y="-3px" width="51px" height="51px" filterUnits="userSpaceOnUse" id="filter13">
      <feOffset dx="2" dy="2" in="SourceAlpha" result="shadowOffsetInner" />
      <feGaussianBlur stdDeviation="2.5" in="shadowOffsetInner" result="shadowGaussian" />
      <feComposite in2="shadowGaussian" operator="atop" in="SourceAlpha" result="shadowComposite" />
      <feColorMatrix type="matrix" values="0 0 0 0 0  0 0 0 0 0  0 0 0 0 0  0 0 0 0.349019607843137 0  " in="shadowComposite" />
    </filter>
    <g id="widget14">
      <path d="M 20.5 0  C 31.98 0  41 9.02  41 20.5  C 41 31.98  31.98 41  20.5 41  C 9.02 41  0 31.98  0 20.5  C 0 9.02  9.02 0  20.5 0  Z " fill-rule="nonzero" fill="#02a7f0" stroke="none" />
      <path d="M 20.5 0.5  C 31.7 0.5  40.5 9.3  40.5 20.5  C 40.5 31.7  31.7 40.5  20.5 40.5  C 9.3 40.5  0.5 31.7  0.5 20.5  C 0.5 9.3  9.3 0.5  20.5 0.5  Z " stroke-width="1" stroke="#797979" fill="none" />
    </g>
  </defs>
  <g transform="matrix(1 0 0 1 3 3 )">
    <use xlink:href="#widget14" filter="url(#filter13)" />
    <use xlink:href="#widget14" />
  </g>
</svg>