<?xml version="1.0" encoding="utf-8"?>
<svg version="1.1" xmlns:xlink="http://www.w3.org/1999/xlink" width="17px" height="17px" xmlns="http://www.w3.org/2000/svg">
  <g transform="matrix(1 0 0 1 -389 -389 )">
    <path d="M 397.5 389  C 402.26 389  406 392.74  406 397.5  C 406 402.26  402.26 406  397.5 406  C 392.74 406  389 402.26  389 397.5  C 389 392.74  392.74 389  397.5 389  Z " fill-rule="nonzero" fill="#ffffff" stroke="none" />
    <path d="M 397.5 389.5  C 401.98 389.5  405.5 393.02  405.5 397.5  C 405.5 401.98  401.98 405.5  397.5 405.5  C 393.02 405.5  389.5 401.98  389.5 397.5  C 389.5 393.02  393.02 389.5  397.5 389.5  Z " stroke-width="1" stroke="#797979" fill="none" />
  </g>
</svg>